<?xml version="1.0" encoding="utf-8"?>
<!-- Generator: Adobe Illustrator 24.3.0, SVG Export Plug-In . SVG Version: 6.00 Build 0)  -->
<svg version="1.1" id="Layer_1" xmlns="http://www.w3.org/2000/svg" xmlns:xlink="http://www.w3.org/1999/xlink" x="0px" y="0px"
	 viewBox="0 0 512 512" style="enable-background:new 0 0 512 512;" xml:space="preserve">
<style type="text/css">
	.st0{fill:#9A4993;}
	.st1{fill:#6A1577;}
	.st2{fill:#813084;}
	.st3{fill:#FFFFFF;}
</style>
<path id="XMLID_3_" class="st0" d="M483.72,150.49c0-8.56-1.82-16.27-5.61-22.72c-3.65-6.45-9.12-11.78-16.41-15.99
	C401.12,76.85,340.39,41.93,279.8,7.01c-16.41-9.4-32.12-9.12-48.39,0.42C207.29,21.6,86.4,90.88,50.5,111.78
	c-14.87,8.56-22.02,21.74-22.02,38.85c0,70.26,0,140.67,0,210.93c0,8.41,1.82,15.85,5.33,22.3c3.65,6.59,9.26,12.2,16.69,16.55
	c36.04,20.9,156.8,90.04,180.92,104.34c16.27,9.54,32.12,9.96,48.39,0.42c60.59-35.06,121.31-69.84,181.9-104.77
	c7.57-4.35,13.04-9.82,16.69-16.55c3.51-6.45,5.33-13.88,5.33-22.3C483.72,361.42,483.72,220.75,483.72,150.49"/>
<path id="XMLID_4_" class="st1" d="M256.66,255.25L33.53,383.72c3.65,6.59,9.26,12.2,16.69,16.55
	c36.04,20.9,156.8,90.04,180.92,104.34c16.27,9.54,32.12,9.96,48.39,0.42c60.59-35.06,121.31-69.84,181.9-104.77
	c7.57-4.35,13.04-9.82,16.69-16.55L256.66,255.25"/>
<path id="XMLID_5_" class="st1" d="M190.6,293.26c13.04,22.72,37.45,38.01,65.36,38.01c28.19,0,52.73-15.43,65.64-38.43
	l-64.93-37.59L190.6,293.26"/>
<path id="XMLID_6_" class="st2" d="M483.72,150.49c0-8.56-1.82-16.27-5.61-22.72L256.66,255.25l221.73,128.47
	c3.51-6.45,5.33-13.88,5.33-22.3C483.72,361.42,483.72,220.75,483.72,150.49"/>
<path id="XMLID_9_" class="st3" d="M321.6,292.84c-12.9,22.86-37.45,38.43-65.64,38.43c-28.05,0-52.45-15.29-65.36-38.01
	c-6.31-11.08-9.96-23.7-9.96-37.31c0-41.65,33.66-75.31,75.31-75.31c27.77,0,52.03,15.15,65.08,37.59l65.78-37.87
	c-26.23-45.16-75.03-75.59-130.99-75.59c-83.59,0-151.19,67.74-151.19,151.19c0,27.35,7.29,53.15,20.06,75.31
	c26.09,45.3,75.17,75.87,131.27,75.87c56.24,0,105.33-30.71,131.41-76.3L321.6,292.84"/>
<g id="XMLID_32_">
	<rect id="XMLID_2_" x="389.76" y="220.19" class="st3" width="15.01" height="72.51"/>
	<rect id="XMLID_30_" x="423" y="220.19" class="st3" width="15.01" height="72.51"/>
	<rect id="XMLID_31_" x="377.7" y="232.39" class="st3" width="72.51" height="15.01"/>
	<rect id="XMLID_23_" x="377.7" y="265.49" class="st3" width="72.51" height="15.01"/>
</g>
</svg>
