<?xml version="1.0" encoding="utf-8"?>
<!-- Generator: Adobe Illustrator 24.3.0, SVG Export Plug-In . SVG Version: 6.00 Build 0)  -->
<svg version="1.1" id="Layer_1" xmlns="http://www.w3.org/2000/svg" xmlns:xlink="http://www.w3.org/1999/xlink" x="0px" y="0px"
	 viewBox="0 0 512 512" style="enable-background:new 0 0 512 512;" xml:space="preserve">
<style type="text/css">
	.st0{fill:#1F72B5;}
	.st1{fill:#51A3DC;}
	.st2{fill:#EBEBEB;}
	.st3{fill:#CECECE;}
</style>
<g id="XMLID_1_">
	<polygon id="XMLID_11_" class="st0" points="107.66,470.9 74.67,100.55 437.33,100.55 404.34,470.76 255.72,512 	"/>
	<polygon id="XMLID_10_" class="st1" points="256,480.57 376.04,447.29 404.34,130.84 256,130.84 	"/>
	<polygon id="XMLID_35_" class="st2" points="138.1,216.32 133.69,173.51 378.31,173.51 375.47,223.15 272.07,268.8 371.2,268.8 
		360.53,409.6 260.55,436.48 156.87,411.31 150.47,339.91 196.27,339.91 198.83,377.6 258.84,388.84 314.31,371.77 316.87,311.47 
		146.49,311.47 143.36,266.67 256,217.32 	"/>
	<g id="XMLID_2_">
		<polygon id="XMLID_39_" class="st3" points="143.36,266.67 146.49,311.47 256,311.47 256,217.32 		"/>
		<polygon id="XMLID_40_" class="st3" points="198.83,377.6 196.27,339.91 150.47,339.91 156.87,411.31 256,435.34 256,388.27 		"/>
		<polygon id="XMLID_41_" class="st3" points="133.69,173.51 138.1,216.32 256,217.32 256,173.51 		"/>
	</g>
	<g id="XMLID_36_">
		<polygon id="XMLID_34_" points="290.13,17.07 290.13,0 221.87,0 221.87,39.82 268.8,39.82 268.8,52.62 220.44,52.62 220.44,68.27 
			288.71,68.27 288.71,27.02 240.36,27.02 240.36,17.07 		"/>
		<polygon id="XMLID_38_" points="166.4,40.25 166.4,52.62 214.76,52.62 214.76,68.27 146.49,68.27 146.49,27.45 146.49,0 213.33,0 
			213.33,17.07 166.4,17.07 		"/>
		<polygon id="XMLID_37_" points="365.51,17.07 365.51,0 297.24,0 297.24,39.82 344.18,39.82 344.18,52.62 295.82,52.62 
			295.82,68.27 364.09,68.27 364.09,27.02 315.73,27.02 315.73,17.07 		"/>
	</g>
</g>
</svg>
